<svg width="121" height="121" viewBox="0 0 121 121" fill="none" xmlns="http://www.w3.org/2000/svg">
<circle cx="60.5" cy="60.5" r="60.5" fill="white"/>
<path d="M95.8833 89.3752C95.6418 89.7933 95.2946 90.1404 94.8764 90.3818C94.4582 90.6231 93.9838 90.7501 93.501 90.75H27.4973C27.0148 90.7495 26.5409 90.6221 26.1232 90.3806C25.7056 90.139 25.3588 89.7919 25.1177 89.374C24.8767 88.9561 24.7499 88.4821 24.75 87.9997C24.7501 87.5173 24.8772 87.0434 25.1185 86.6256C30.3541 77.5759 38.4223 71.0867 47.8381 68.0106C43.1806 65.2385 39.5621 61.0144 37.5381 55.9871C35.5141 50.9599 35.1967 45.4073 36.6345 40.1822C38.0723 34.957 41.1859 30.3483 45.4972 27.0636C49.8084 23.7789 55.0788 22 60.4991 22C65.9194 22 71.1899 23.7789 75.5011 27.0636C79.8124 30.3483 82.9259 34.957 84.3638 40.1822C85.8016 45.4073 85.4842 50.9599 83.4602 55.9871C81.4362 61.0144 77.8176 65.2385 73.1601 68.0106C82.576 71.0867 90.6442 77.5759 95.8798 86.6256C96.1217 87.0433 96.2494 87.5173 96.25 87.9999C96.2506 88.4826 96.1241 88.9569 95.8833 89.3752Z" fill="#361656"/>
</svg>
