<svg width="265" height="145" viewBox="0 0 265 145" fill="none" xmlns="http://www.w3.org/2000/svg">
<g clip-path="url(#clip0_229_3286)">
<path d="M129.082 46.9958C135.951 51.7887 142.536 58.9828 148.839 68.5779C151.518 72.5613 154.732 76.1572 158.39 79.2645C161.476 81.5502 165.246 82.7194 169.083 82.5805C175.28 82.7066 181.279 80.3955 185.791 76.1435C188.01 74.1802 189.781 71.7613 190.982 69.0517C192.184 66.3421 192.787 63.4052 192.753 60.4411C192.753 54.3756 190.706 47.8457 186.613 40.8514C181.956 33.2196 175.928 26.5164 168.833 21.0805C160.296 14.474 150.708 9.35393 140.471 5.93546C128.628 1.9177 116.191 -0.0655365 103.686 0.069711C82.1329 0.069711 63.601 4.51894 48.0906 13.4174C32.7354 22.1569 20.3532 35.305 12.5448 51.1617C6.02129 64.426 2.07155 78.8082 0.905071 93.5457C0.37599 99.2722 -0.612617 105.779 0.668316 111.45C2.77072 120.826 11.3056 127.904 20.4949 129.897C33.2207 132.683 48.2161 125.271 51.5437 112.188C52.8386 107.047 52.0866 101.794 52.5182 96.5831C53.8131 80.602 58.2963 67.6026 66.0655 57.6963C75.3476 45.7697 87.6371 39.8064 102.934 39.8064C113.506 39.76 122.222 42.1564 129.082 46.9958Z" fill="#7558A1"/>
<path d="M258.762 66.0978C256.855 63.7949 254.455 61.9515 251.738 60.7044C249.022 59.4574 246.059 58.8387 243.071 58.8945C238.128 58.7631 233.321 60.5276 229.635 63.8268C225.488 67.7538 222.037 72.3567 219.429 77.4393C213.758 87.2945 207.233 94.6139 199.853 99.3975C192.474 104.181 183.619 106.578 173.288 106.587C165.989 106.671 158.761 105.154 152.111 102.142C145.391 98.9519 139.551 94.1693 135.097 88.2094C132.837 85.2191 130.869 82.0184 129.221 78.6514C127.578 75.2936 126.548 72.3816 123.373 70.1245C119.401 67.5196 114.783 66.0723 110.035 65.9446C104.879 65.6951 99.7588 66.9185 95.2719 69.4719C90.7849 72.0254 87.1163 75.8035 84.6947 80.3652C81.729 86.0359 80.0165 93.4064 83.3024 99.1886C87.0224 105.666 91.495 111.68 96.627 117.106C96.8776 117.357 97.1559 117.594 97.4066 117.859C115.238 135.953 139.877 145.005 171.325 145.014C185.056 145.209 198.727 143.161 211.8 138.953C222.684 135.548 232.829 130.121 241.706 122.958C248.862 117.194 254.834 110.096 259.291 102.059C263.134 94.7486 265.056 87.875 265.056 81.438C264.938 75.7192 262.694 70.2497 258.762 66.0978Z" fill="#642582"/>
</g>
<defs>
<clipPath id="clip0_229_3286">
<rect width="265" height="145" fill="white"/>
</clipPath>
</defs>
</svg>
